<?xml version="1.0" encoding="utf-8"?>
<svg width="28px" height="24px" viewbox="0 0 28 24" version="1.1" xmlns:xlink="http://www.w3.org/1999/xlink" xmlns="http://www.w3.org/2000/svg">
  <g id="noun_users_847316" transform="translate(0.80000305 0.7999878)">
    <path d="M2.75 0C1.23665 0 0 1.23665 0 2.75C0 4.26335 1.23665 5.5 2.75 5.5C4.26336 5.5 5.5 4.26335 5.5 2.75C5.5 1.23665 4.26336 0 2.75 0Z" transform="translate(16.6 2.2)" id="Path" fill="none" fill-rule="evenodd" stroke="#8290B0" stroke-width="1.4" />
    <path d="M3.85 0C1.72979 0 0 1.72978 0 3.85C0 5.97022 1.72979 7.7 3.85 7.7C5.97021 7.7 7.7 5.97022 7.7 3.85C7.7 1.72978 5.97021 0 3.85 0Z" transform="translate(5.5394588 0.6492359)" id="Path" fill="none" fill-rule="evenodd" stroke="#8290B0" stroke-width="1.6" />
    <path d="M11.3903 5.03728C11.3903 4.19262 10.8613 3.32809 9.85737 2.63017C8.74689 1.85822 7.17681 1.4 5.49026 1.4C3.80371 1.4 2.23364 1.85822 1.12315 2.63017C1.03575 2.69093 0.871768 2.81612 0.871768 2.81612L4.79166 3.93501L6.28121 8.38542L11.3903 8.38542L11.3903 5.03728ZM12.7903 5.03728L12.7903 9.78542L5.6439 9.78542L5.03745 4.89271L0 1.72079C0 1.72079 0.21205 1.55849 0.324046 1.48063C1.67751 0.539774 3.52704 0 5.49026 0C7.45348 -3.55271e-14 9.30301 0.539774 10.6565 1.48063C12.0122 2.42312 12.7903 3.69479 12.7903 5.03728Z" transform="translate(13.037256 9.380555)" id="Path-Copy-27" fill="#8290B0" stroke="none" />
    <path d="M9.43359 0C12.1294 0 14.5491 0.640157 16.2467 1.63778C17.9443 2.63543 18.8672 3.92836 18.8672 5.24089L18.8672 10.1324L0 10.1324L0 5.24089C0 3.92836 0.92284 2.63543 2.62044 1.63778C4.31805 0.640157 6.73774 3.97213e-14 9.43359 3.97213e-14L9.43359 0Z" transform="translate(0 11)" id="Path" fill="none" fill-rule="evenodd" stroke="#8290B0" stroke-width="1.6" />
    <path d="M2.60604 1.94436C2.60604 1.94436 1.96123 1.66269 1.41477 1.43305C0.988277 1.25383 0 0.999323 0 0.999323L1.97016 0L4.32767 1.30317L2.60604 1.94436Z" transform="translate(13.501248 9.696829)" id="Path-4" fill="#1F2124" fill-rule="evenodd" stroke="none" />
    <path d="M0 0L1.39757 0L1.39757 2L0 2L0 0Z" transform="translate(19.666958 17.436432)" id="Rectangle" fill="#1F2124" fill-rule="evenodd" stroke="none" />
  </g>
</svg>