<?xml version="1.0" encoding="utf-8"?>
<svg width="20px" height="25px" viewbox="0 0 20 25" version="1.1" xmlns:xlink="http://www.w3.org/1999/xlink" xmlns="http://www.w3.org/2000/svg">
  <defs>
    <path d="M15.9871 0L19.0129 0Q19.1101 0 19.2054 0.0189677Q19.3008 0.0379353 19.3906 0.0751417Q19.4804 0.112348 19.5613 0.166363Q19.6421 0.220379 19.7109 0.289127Q19.7796 0.357876 19.8336 0.438715Q19.8876 0.519555 19.9249 0.609379Q19.9621 0.699203 19.981 0.79456Q20 0.889917 20 0.987142L20 23.6176Q20 23.7148 19.981 23.8102Q19.9621 23.9055 19.9249 23.9954Q19.8876 24.0852 19.8336 24.166Q19.7796 24.2469 19.7109 24.3156Q19.6421 24.3844 19.5613 24.4384Q19.4804 24.4924 19.3906 24.5296Q19.3008 24.5668 19.2054 24.5858Q19.1101 24.6047 19.0129 24.6047L15.9871 24.6047Q15.8899 24.6047 15.7946 24.5858Q15.6992 24.5668 15.6094 24.5296Q15.5196 24.4924 15.4387 24.4384Q15.3579 24.3844 15.2891 24.3156Q15.2204 24.2469 15.1664 24.166Q15.1123 24.0852 15.0751 23.9954Q15.0379 23.9055 15.019 23.8102Q15 23.7148 15 23.6176L15 0.987142Q15 0.889917 15.019 0.79456Q15.0379 0.699203 15.0751 0.609379Q15.1123 0.519555 15.1664 0.438715Q15.2204 0.357876 15.2891 0.289127Q15.3579 0.220379 15.4387 0.166363Q15.5196 0.112348 15.6094 0.0751417Q15.6992 0.0379353 15.7946 0.0189677Q15.8899 0 15.9871 0ZM8.48714 4.94071L11.5129 4.94071Q11.6101 4.94071 11.7054 4.95968Q11.8008 4.97865 11.8906 5.01585Q11.9804 5.05306 12.0613 5.10707Q12.1421 5.16109 12.2109 5.22984Q12.2796 5.29859 12.3336 5.37943Q12.3877 5.46027 12.4249 5.55009Q12.4621 5.63991 12.481 5.73527Q12.5 5.83063 12.5 5.92785L12.5 23.6176Q12.5 23.7148 12.481 23.8102Q12.4621 23.9055 12.4249 23.9954Q12.3876 24.0852 12.3336 24.166Q12.2796 24.2469 12.2109 24.3156Q12.1421 24.3844 12.0613 24.4384Q11.9804 24.4924 11.8906 24.5296Q11.8008 24.5668 11.7054 24.5858Q11.6101 24.6047 11.5129 24.6047L8.48714 24.6047Q8.38992 24.6047 8.29456 24.5858Q8.1992 24.5668 8.10938 24.5296Q8.01955 24.4924 7.93871 24.4384Q7.85788 24.3844 7.78913 24.3156Q7.72038 24.2469 7.66636 24.166Q7.61235 24.0852 7.57514 23.9954Q7.53793 23.9055 7.51897 23.8102Q7.5 23.7148 7.5 23.6176L7.5 5.92785Q7.5 5.83063 7.51897 5.73527Q7.53793 5.63991 7.57514 5.55009Q7.61235 5.46027 7.66636 5.37943Q7.72038 5.29859 7.78913 5.22984Q7.85788 5.16109 7.93871 5.10707Q8.01955 5.05306 8.10938 5.01585Q8.1992 4.97865 8.29456 4.95968Q8.38992 4.94071 8.48714 4.94071ZM4.01286 12.253L0.987142 12.253Q0.889917 12.253 0.79456 12.2719Q0.699204 12.2909 0.609379 12.3281Q0.519555 12.3653 0.438715 12.4193Q0.357876 12.4733 0.289127 12.5421Q0.220379 12.6108 0.166363 12.6917Q0.112348 12.7725 0.0751417 12.8623Q0.0379353 12.9522 0.0189677 13.0475Q0 13.1429 0 13.2401L0 24.0129Q0 24.1101 0.0189677 24.2054Q0.0379353 24.3008 0.0751417 24.3906Q0.112348 24.4804 0.166363 24.5613Q0.220379 24.6421 0.289127 24.7109Q0.357876 24.7796 0.438715 24.8336Q0.519555 24.8876 0.609379 24.9249Q0.699203 24.9621 0.79456 24.981Q0.889917 25 0.987142 25L4.01286 25Q4.11008 25 4.20544 24.981Q4.3008 24.9621 4.39062 24.9249Q4.48044 24.8876 4.56128 24.8336Q4.64212 24.7796 4.71087 24.7109Q4.77962 24.6421 4.83364 24.5613Q4.88765 24.4804 4.92486 24.3906Q4.96206 24.3008 4.98103 24.2054Q5 24.1101 5 24.0129L5 13.2401Q5 13.1429 4.98103 13.0475Q4.96206 12.9522 4.92486 12.8623Q4.88765 12.7725 4.83364 12.6917Q4.77962 12.6108 4.71087 12.5421Q4.64212 12.4733 4.56128 12.4193Q4.48044 12.3653 4.39062 12.3281Q4.3008 12.2909 4.20544 12.2719Q4.11008 12.253 4.01286 12.253Z" id="path_1" />
    <clipPath id="clip_1">
      <use xlink:href="#path_1" />
    </clipPath>
  </defs>
  <g id="Combined-Shape">
    <g clip-path="url(#clip_1)">
      <use xlink:href="#path_1" fill="none" stroke="#8290B0" stroke-width="2.8" />
    </g>
  </g>
</svg>