<?xml version="1.0" encoding="utf-8"?>
<svg width="14px" height="19px" viewbox="0 0 14 19" version="1.1" xmlns:xlink="http://www.w3.org/1999/xlink" xmlns="http://www.w3.org/2000/svg">
  <g id="noun_drop_686146" transform="translate(0.7999878 0.7999878)">
    <path d="M6.04041 0.206335C6.66308 1.14766 9.21409 5.04719 10.5162 7.05273C11.3207 8.29166 11.8194 9.638 11.7925 11.183C11.7289 14.8315 8.82042 17.32 6.10455 17.3166C4.29264 17.3141 2.77333 16.7109 1.54811 15.2921C-0.176068 13.2955 -0.495582 10.4026 0.768766 7.98311C1.2428 7.07591 1.84046 6.24348 2.3925 5.38463C3.34337 3.90589 5.23449 1.00693 5.7642 0.206181C5.83984 0.0918404 5.96478 0.0919934 6.04041 0.206335Z" id="Path" fill="none" fill-rule="evenodd" stroke="#39B6FF" stroke-width="1.6" />
    <path d="M1.91247 0.669579C1.3298 1.45875 0.884173 2.14456 0.884173 3.17794C0.884173 3.67639 1.03537 4.15973 1.32149 4.57604C1.45588 4.77155 1.39965 5.03477 1.19593 5.16375C1.12095 5.2111 1.03643 5.23385 0.952962 5.23385C0.809195 5.23385 0.668435 5.16681 0.583554 5.04309C0.201768 4.48779 0 3.84271 0 3.17794C0 1.89661 0.539346 1.06162 1.19098 0.179108C1.33227 -0.011989 1.60813 -0.0574722 1.80725 0.0781287C2.00654 0.21356 2.05358 0.478482 1.91247 0.669579Z" transform="matrix(0.98162717 -0.190809 0.190809 0.98162717 1.3118286 8.84082)" id="Path" fill="#39B6FF" fill-rule="evenodd" stroke="none" />
  </g>
</svg>