<?xml version="1.0" encoding="utf-8"?>
<svg width="23px" height="23px" viewbox="0 0 23 23" version="1.1" xmlns:xlink="http://www.w3.org/1999/xlink" xmlns="http://www.w3.org/2000/svg">
  <defs>
    <path d="M1.56718 0L8.88736 0Q8.96435 0 9.04097 0.00754641Q9.11759 0.0150928 9.1931 0.030113Q9.26862 0.0451331 9.34229 0.0674823Q9.41597 0.0898315 9.4871 0.119295Q9.55823 0.148758 9.62613 0.185051Q9.69403 0.221344 9.75804 0.264118Q9.82206 0.306891 9.88157 0.355734Q9.94109 0.404576 9.99553 0.459017Q10.05 0.513458 10.0988 0.572972Q10.1477 0.632487 10.1904 0.696502Q10.2332 0.760518 10.2695 0.828417Q10.3058 0.896317 10.3352 0.967447Q10.3647 1.03858 10.3871 1.11225Q10.4094 1.18593 10.4244 1.26144Q10.4395 1.33695 10.447 1.41357Q10.4545 1.49019 10.4545 1.56718L10.4545 5.751Q10.4545 5.82799 10.447 5.90461Q10.4395 5.98123 10.4244 6.05674Q10.4094 6.13225 10.3871 6.20593Q10.3647 6.2796 10.3352 6.35073Q10.3058 6.42186 10.2695 6.48976Q10.2332 6.55766 10.1904 6.62168Q10.1477 6.68569 10.0988 6.74521Q10.05 6.80472 9.99553 6.85916Q9.94109 6.91361 9.88157 6.96245Q9.82206 7.01129 9.75804 7.05406Q9.69403 7.09684 9.62613 7.13313Q9.55823 7.16942 9.4871 7.19889Q9.41597 7.22835 9.34229 7.2507Q9.26862 7.27305 9.1931 7.28807Q9.11759 7.30309 9.04097 7.31064Q8.96435 7.31818 8.88736 7.31818L1.56718 7.31818Q1.49019 7.31818 1.41357 7.31064Q1.33695 7.30309 1.26144 7.28807Q1.18593 7.27305 1.11225 7.2507Q1.03858 7.22835 0.967447 7.19889Q0.896317 7.16942 0.828417 7.13313Q0.760518 7.09684 0.696502 7.05406Q0.632487 7.01129 0.572972 6.96245Q0.513458 6.91361 0.459017 6.85916Q0.404576 6.80472 0.355734 6.74521Q0.306891 6.6857 0.264118 6.62168Q0.221344 6.55766 0.185051 6.48976Q0.148758 6.42186 0.119295 6.35073Q0.0898315 6.2796 0.0674823 6.20593Q0.0451331 6.13225 0.030113 6.05674Q0.0150928 5.98123 0.00754641 5.90461Q0 5.82799 0 5.751L0 1.56718Q0 1.49019 0.00754641 1.41357Q0.0150928 1.33695 0.030113 1.26144Q0.0451331 1.18593 0.0674823 1.11225Q0.0898315 1.03858 0.119295 0.967447Q0.148758 0.896317 0.185051 0.828417Q0.221344 0.760518 0.264118 0.696502Q0.306891 0.632487 0.355734 0.572972Q0.404576 0.513458 0.459017 0.459017Q0.513458 0.404576 0.572972 0.355734Q0.632487 0.306891 0.696502 0.264118Q0.760518 0.221344 0.828417 0.185051Q0.896317 0.148758 0.967447 0.119295Q1.03858 0.0898315 1.11225 0.0674823Q1.18593 0.0451331 1.26144 0.030113Q1.33695 0.0150928 1.41357 0.00754641Q1.49019 0 1.56718 0Z" id="path_1" />
    <path d="M1.56718 0L8.88736 0Q8.96435 0 9.04097 0.00754641Q9.11759 0.0150928 9.1931 0.030113Q9.26862 0.0451331 9.34229 0.0674823Q9.41597 0.0898315 9.4871 0.119295Q9.55823 0.148758 9.62613 0.185051Q9.69403 0.221344 9.75804 0.264118Q9.82206 0.306891 9.88157 0.355734Q9.94109 0.404576 9.99553 0.459017Q10.05 0.513458 10.0988 0.572972Q10.1477 0.632487 10.1904 0.696502Q10.2332 0.760518 10.2695 0.828417Q10.3058 0.896317 10.3352 0.967447Q10.3647 1.03858 10.3871 1.11225Q10.4094 1.18593 10.4244 1.26144Q10.4395 1.33695 10.447 1.41357Q10.4545 1.49019 10.4545 1.56718L10.4545 5.751Q10.4545 5.82799 10.447 5.90461Q10.4395 5.98123 10.4244 6.05674Q10.4094 6.13225 10.3871 6.20593Q10.3647 6.2796 10.3352 6.35073Q10.3058 6.42186 10.2695 6.48976Q10.2332 6.55766 10.1904 6.62168Q10.1477 6.68569 10.0988 6.74521Q10.05 6.80472 9.99553 6.85916Q9.94109 6.91361 9.88157 6.96245Q9.82206 7.01129 9.75804 7.05406Q9.69403 7.09684 9.62613 7.13313Q9.55823 7.16942 9.4871 7.19889Q9.41597 7.22835 9.34229 7.2507Q9.26862 7.27305 9.1931 7.28807Q9.11759 7.30309 9.04097 7.31064Q8.96435 7.31818 8.88736 7.31818L1.56718 7.31818Q1.49019 7.31818 1.41357 7.31064Q1.33695 7.30309 1.26144 7.28807Q1.18593 7.27305 1.11225 7.2507Q1.03858 7.22835 0.967447 7.19889Q0.896317 7.16942 0.828417 7.13313Q0.760518 7.09684 0.696502 7.05406Q0.632487 7.01129 0.572972 6.96245Q0.513458 6.91361 0.459017 6.85916Q0.404576 6.80472 0.355734 6.74521Q0.306891 6.6857 0.264118 6.62168Q0.221344 6.55766 0.185051 6.48976Q0.148758 6.42186 0.119295 6.35073Q0.0898315 6.2796 0.0674823 6.20593Q0.0451331 6.13225 0.030113 6.05674Q0.0150928 5.98123 0.00754641 5.90461Q0 5.82799 0 5.751L0 1.56718Q0 1.49019 0.00754641 1.41357Q0.0150928 1.33695 0.030113 1.26144Q0.0451331 1.18593 0.0674823 1.11225Q0.0898315 1.03858 0.119295 0.967447Q0.148758 0.896317 0.185051 0.828417Q0.221344 0.760518 0.264118 0.696502Q0.306891 0.632487 0.355734 0.572972Q0.404576 0.513458 0.459017 0.459017Q0.513458 0.404576 0.572972 0.355734Q0.632487 0.306891 0.696502 0.264118Q0.760518 0.221344 0.828417 0.185051Q0.896317 0.148758 0.967447 0.119295Q1.03858 0.0898315 1.11225 0.0674823Q1.18593 0.0451331 1.26144 0.030113Q1.33695 0.0150928 1.41357 0.00754641Q1.49019 0 1.56718 0Z" transform="translate(12.429291 15.681824)" id="path_2" />
    <clipPath id="clip_1">
      <use xlink:href="#path_1" />
    </clipPath>
    <clipPath id="clip_2">
      <use xlink:href="#path_2" />
    </clipPath>
  </defs>
  <g id="Group-31">
    <g id="Rectangle">
      <use stroke="none" fill="#FFFFFF" xlink:href="#path_1" fill-rule="evenodd" />
      <g clip-path="url(#clip_1)">
        <use xlink:href="#path_1" fill="none" stroke="#FFFFFF" stroke-width="2" />
      </g>
    </g>
    <path d="M1.56718 0L8.88736 0Q8.96435 0 9.04097 0.00754641Q9.11759 0.0150928 9.1931 0.030113Q9.26862 0.0451331 9.34229 0.0674823Q9.41597 0.0898315 9.4871 0.119295Q9.55823 0.148758 9.62613 0.185051Q9.69403 0.221344 9.75804 0.264118Q9.82206 0.306891 9.88157 0.355734Q9.94109 0.404576 9.99553 0.459017Q10.05 0.513458 10.0988 0.572972Q10.1477 0.632487 10.1904 0.696502Q10.2332 0.760518 10.2695 0.828417Q10.3058 0.896317 10.3352 0.967447Q10.3647 1.03858 10.3871 1.11225Q10.4094 1.18593 10.4244 1.26144Q10.4395 1.33695 10.447 1.41357Q10.4545 1.49019 10.4545 1.56718L10.4545 12.0237Q10.4545 12.1007 10.447 12.1773Q10.4395 12.254 10.4244 12.3295Q10.4094 12.405 10.3871 12.4787Q10.3647 12.5523 10.3352 12.6235Q10.3058 12.6946 10.2695 12.7625Q10.2332 12.8304 10.1904 12.8944Q10.1477 12.9584 10.0988 13.0179Q10.05 13.0775 9.99553 13.1319Q9.94109 13.1863 9.88157 13.2352Q9.82206 13.284 9.75804 13.3268Q9.69403 13.3696 9.62613 13.4059Q9.55823 13.4422 9.4871 13.4716Q9.41597 13.5011 9.34229 13.5234Q9.26862 13.5458 9.1931 13.5608Q9.11759 13.5758 9.04097 13.5834Q8.96435 13.5909 8.88736 13.5909L1.56718 13.5909Q1.49019 13.5909 1.41357 13.5834Q1.33695 13.5758 1.26144 13.5608Q1.18593 13.5458 1.11225 13.5234Q1.03858 13.5011 0.967447 13.4716Q0.896317 13.4422 0.828417 13.4059Q0.760518 13.3696 0.696502 13.3268Q0.632487 13.284 0.572972 13.2352Q0.513458 13.1863 0.459017 13.1319Q0.404576 13.0775 0.355734 13.0179Q0.306891 12.9584 0.264118 12.8944Q0.221344 12.8304 0.185051 12.7625Q0.148758 12.6946 0.119295 12.6235Q0.0898315 12.5523 0.0674823 12.4787Q0.0451331 12.405 0.030113 12.3295Q0.0150928 12.254 0.00754641 12.1773Q0 12.1007 0 12.0237L0 1.56718Q0 1.49019 0.00754641 1.41357Q0.0150928 1.33695 0.030113 1.26144Q0.0451331 1.18593 0.0674823 1.11225Q0.0898315 1.03858 0.119295 0.967447Q0.148758 0.896317 0.185051 0.828417Q0.221344 0.760518 0.264118 0.696502Q0.306891 0.632487 0.355734 0.572972Q0.404576 0.513458 0.459017 0.459017Q0.513458 0.404576 0.572972 0.355734Q0.632487 0.306891 0.696502 0.264118Q0.760518 0.221344 0.828417 0.185051Q0.896317 0.148758 0.967447 0.119295Q1.03858 0.0898315 1.11225 0.0674823Q1.18593 0.0451331 1.26144 0.030113Q1.33695 0.0150928 1.41357 0.00754641Q1.49019 0 1.56718 0Z" transform="translate(12.429291 0)" id="Rectangle-Copy-2" fill="#1A91FA" fill-rule="evenodd" stroke="none" />
    <path d="M1.56718 0L8.88736 0Q8.96435 0 9.04097 0.00754641Q9.11759 0.0150928 9.1931 0.030113Q9.26862 0.0451331 9.34229 0.0674823Q9.41597 0.0898315 9.4871 0.119295Q9.55823 0.148758 9.62613 0.185051Q9.69403 0.221344 9.75804 0.264118Q9.82206 0.306891 9.88157 0.355734Q9.94109 0.404576 9.99553 0.459017Q10.05 0.513458 10.0988 0.572972Q10.1477 0.632487 10.1904 0.696502Q10.2332 0.760518 10.2695 0.828417Q10.3058 0.896317 10.3352 0.967447Q10.3647 1.03858 10.3871 1.11225Q10.4094 1.18593 10.4244 1.26144Q10.4395 1.33695 10.447 1.41357Q10.4545 1.49019 10.4545 1.56718L10.4545 12.0237Q10.4545 12.1007 10.447 12.1773Q10.4395 12.254 10.4244 12.3295Q10.4094 12.405 10.3871 12.4787Q10.3647 12.5523 10.3352 12.6235Q10.3058 12.6946 10.2695 12.7625Q10.2332 12.8304 10.1904 12.8944Q10.1477 12.9584 10.0988 13.0179Q10.05 13.0775 9.99553 13.1319Q9.94109 13.1863 9.88157 13.2352Q9.82206 13.284 9.75804 13.3268Q9.69403 13.3696 9.62613 13.4059Q9.55823 13.4422 9.4871 13.4716Q9.41597 13.5011 9.34229 13.5234Q9.26862 13.5458 9.1931 13.5608Q9.11759 13.5758 9.04097 13.5834Q8.96435 13.5909 8.88736 13.5909L1.56718 13.5909Q1.49019 13.5909 1.41357 13.5834Q1.33695 13.5758 1.26144 13.5608Q1.18593 13.5458 1.11225 13.5234Q1.03858 13.5011 0.967447 13.4716Q0.896317 13.4422 0.828417 13.4059Q0.760518 13.3696 0.696502 13.3268Q0.632487 13.284 0.572972 13.2352Q0.513458 13.1863 0.459017 13.1319Q0.404576 13.0775 0.355734 13.0179Q0.306891 12.9584 0.264118 12.8944Q0.221344 12.8304 0.185051 12.7625Q0.148758 12.6946 0.119295 12.6235Q0.0898315 12.5523 0.0674823 12.4787Q0.0451331 12.405 0.030113 12.3295Q0.0150928 12.254 0.00754641 12.1773Q0 12.1007 0 12.0237L0 1.56718Q0 1.49019 0.00754641 1.41357Q0.0150928 1.33695 0.030113 1.26144Q0.0451331 1.18593 0.0674823 1.11225Q0.0898315 1.03858 0.119295 0.967447Q0.148758 0.896317 0.185051 0.828417Q0.221344 0.760518 0.264118 0.696502Q0.306891 0.632487 0.355734 0.572972Q0.404576 0.513458 0.459017 0.459017Q0.513458 0.404576 0.572972 0.355734Q0.632487 0.306891 0.696502 0.264118Q0.760518 0.221344 0.828417 0.185051Q0.896317 0.148758 0.967447 0.119295Q1.03858 0.0898315 1.11225 0.0674823Q1.18593 0.0451331 1.26144 0.030113Q1.33695 0.0150928 1.41357 0.00754641Q1.49019 0 1.56718 0Z" transform="translate(0 9.409088)" id="Rectangle-Copy-5" fill="#1A91FA" fill-rule="evenodd" stroke="none" />
    <g id="Rectangle-Copy-3">
      <use stroke="none" fill="#FFFFFF" xlink:href="#path_2" fill-rule="evenodd" />
      <g clip-path="url(#clip_2)">
        <use xlink:href="#path_2" fill="none" stroke="#FFFFFF" stroke-width="2" />
      </g>
    </g>
  </g>
</svg>