<?xml version="1.0" encoding="utf-8"?>
<svg width="147px" height="211px" viewbox="0 0 147 211" version="1.1" xmlns:xlink="http://www.w3.org/1999/xlink" xmlns="http://www.w3.org/2000/svg">
  <defs>
    <linearGradient x1="0.04096799" y1="0.06010024" x2="1.1695689" y2="1.1755304" id="gradient_1">
      <stop offset="0" stop-color="#F44B69" />
      <stop offset="1" stop-color="#FFA59D" />
    </linearGradient>
    <linearGradient x1="0.09679431" y1="0.16153017" x2="0.88016915" y2="0.9649063" id="gradient_2">
      <stop offset="0" stop-color="#FFFFFF" />
      <stop offset="1" stop-color="#F1F1F1" />
    </linearGradient>
    <filter filterUnits="userSpaceOnUse" color-interpolation-filters="sRGB" id="filter_1">
      <feFlood flood-opacity="0" result="BackgroundImageFix" />
      <feBlend mode="normal" in="SourceGraphic" in2="BackgroundImageFix" result="shape" />
      <feGaussianBlur stdDeviation="1" result="effect0_gaussianBlur" />
    </filter>
  </defs>
  <g id="character" transform="translate(0.5 0.5)">
    <path d="M37 6C57.4345 6 74 4.65685 74 3C74 1.34315 57.4345 0 37 0C16.5655 0 0 1.34315 0 3C0 4.65685 16.5655 6 37 6Z" transform="translate(66 204)" id="Oval" fill="#17191D" fill-opacity="0.16752698" fill-rule="evenodd" stroke="none" filter="url(#filter_1)" />
    <g id="girl" transform="translate(31.327179 0)">
      <g id="Group-12">
        <g id="Group" transform="translate(38.92166 82.58986)">
          <g id="Group">
            <g id="Group" transform="translate(0 98.72811)">
              <path d="M1.99355 16.2332L0 0L8.73364 1.42396L9.87281 18.5115L1.51889 16.7078L1.99355 16.2332Z" transform="translate(14.429493 0.66451615)" id="Path" fill="#ECACA1" fill-rule="evenodd" stroke="none" />
              <g id="Group" transform="translate(0 12.341014)">
                <path d="M25.5364 1.99355C25.5364 1.99355 18.5115 4.55668 15.3788 0L0 7.97419L27.435 8.9235L25.5364 1.99355Z" transform="translate(0.09493087 0.66451615)" id="Path" fill="#F44B69" fill-rule="evenodd" stroke="none" />
                <path d="M0 2.4682L27.435 3.51244L27.53 1.04424L0.0949309 0L0 2.4682Z" transform="translate(0 8.63871)" id="Path" fill="#FFFFFF" fill-rule="evenodd" stroke="none" />
              </g>
            </g>
            <path d="M2.24688 0C2.24688 0 -1.55035 14.7143 0.727991 56.8636L4.1455 105.183L21.8026 105.183L16.7713 0.759447L2.24688 0Z" transform="translate(6.6766176 0.47465438)" id="Path" fill="#7A39FA" fill-rule="evenodd" stroke="none" />
          </g>
          <g id="Group" transform="translate(10.442396 4.746544)">
            <g id="Group" transform="translate(37.97235 83.53917)">
              <path d="M9.39816 18.1318L0 4.65161L7.49954 0L16.8028 14.6194L9.39816 18.7963L9.39816 18.1318Z" transform="translate(1.0442396 0.47465438)" id="Path" fill="#ECACA1" fill-rule="evenodd" stroke="none" />
              <g id="Group" transform="translate(0 10.442396)">
                <path d="M15.2839 0C15.2839 0 11.6765 6.64516 6.26544 5.2212L0 21.3594L21.2645 3.9871L15.2839 0Z" transform="translate(0.85437787 0.66451615)" id="Path" fill="#F44B69" fill-rule="evenodd" stroke="none" />
                <path d="M1.51889 19.3659L22.7834 1.89862L21.2645 0L0 17.4673L1.51889 19.3659Z" transform="translate(0.94930875 4.556682)" id="Path" fill="#FFFFFF" fill-rule="evenodd" stroke="none" />
              </g>
            </g>
            <g id="Group">
              <path d="M22.5935 0C22.5935 0 28.6691 5.79078 28.4793 22.4037C28.2894 39.0166 33.5106 56.294 33.5106 56.294L14.4295 58.2876C14.4295 58.2876 3.60737 35.5991 0 1.42396L22.5935 0Z" transform="translate(0.47465438 0.28479263)" id="Path" fill="#7A39FA" fill-rule="evenodd" stroke="none" />
              <path d="M14.5244 0C14.5244 0 36.7382 22.6885 43.2885 38.8267L25.8212 47.7502L0 10.3475L14.5244 0Z" transform="translate(15.094009 48.319817)" id="Path" fill="#7A39FA" fill-rule="evenodd" stroke="none" />
              <path d="M15.4737 41.8645C15.4737 41.8645 11.2968 38.5419 9.11336 29.4286C7.02488 20.3152 3.79724 4.74654 3.79724 4.74654L0 0" transform="translate(0.94930875 18.891245)" id="Path" fill="none" fill-rule="evenodd" stroke="#B2ACC7" stroke-width="0.5" />
            </g>
          </g>
        </g>
        <g id="Group" transform="translate(41.17276 0)">
          <g id="Group" transform="translate(13.887146 0)">
            <path d="M8.82857 17.6571C13.7045 17.6571 17.6571 13.7045 17.6571 8.82857C17.6571 3.95269 13.7045 0 8.82857 0C3.95269 0 0 3.95269 0 8.82857C0 13.7045 3.95269 17.6571 8.82857 17.6571Z" transform="translate(6.929954 0.66451615)" id="Oval" fill="#EAEAEA" fill-rule="evenodd" stroke="none" />
            <path d="M7.30968 14.6194C11.3467 14.6194 14.6194 11.3467 14.6194 7.30968C14.6194 3.27265 11.3467 0 7.30968 0C3.27265 0 0 3.27265 0 7.30968C0 11.3467 3.27265 14.6194 7.30968 14.6194Z" transform="translate(0.18986174 9.682949)" id="Oval" fill="#F44B69" fill-rule="evenodd" stroke="none" />
          </g>
          <path d="M0 9.77788L3.7023 20.9797L13.9548 16.8028L8.25899 0L0 9.77788Z" transform="translate(10.659485 26.105988)" id="Path" fill="#ECACA1" fill-rule="evenodd" stroke="none" />
          <path d="M2.37327 7.02488C2.27834 6.83502 4.27189 0 4.27189 0L0 1.89862L2.37327 7.02488Z" transform="translate(10.469666 35.409218)" id="Path" fill="#ED9083" fill-rule="evenodd" stroke="none" />
          <path d="M5.8877 0.204229C5.8877 0.204229 0.571571 1.05861 0.286779 7.7987C0.286779 7.7987 0.0969171 12.6402 0.0019862 19.6651C-0.0929447 23.3674 3.22964 26.3102 6.83701 25.5508C9.02042 25.0761 11.4886 24.1268 13.672 22.4181L16.7098 19.5701C23.9246 11.501 17.2794 -1.31467 6.64715 0.109298C6.45729 0.109298 6.17249 0.109298 5.8877 0.204229Z" transform="translate(1.6390991 12.421577)" id="Path" fill="#ECACA1" fill-rule="evenodd" stroke="none" />
          <path d="M2.8752 0L0.312062 2.65806C-0.162593 3.03779 -0.0676616 3.9871 0.406993 3.9871L2.78026 4.27189L2.78026 0L2.8752 0Z" transform="translate(0 26.390785)" id="Path" fill="#ECACA1" fill-rule="evenodd" stroke="none" />
          <g id="Group" transform="translate(2.3044434 21.97165)">
            <path d="M1.89979 0.0523088C1.89979 0.0523088 0.0961029 -0.232484 0.00117199 0.526963C0.00117199 0.526963 -0.0937589 1.09655 1.42514 1.28641C2.94403 1.47627 3.41868 1.38134 3.60855 0.906687C3.79841 0.432032 2.75417 0.14724 1.89979 0.0523088Z" id="Path" fill="#03041F" fill-rule="evenodd" stroke="none" />
            <path d="M0.759481 1.51896C1.17893 1.51896 1.51896 1.17893 1.51896 0.759481C1.51896 0.340031 1.17893 0 0.759481 0C0.340031 0 0 0.340031 0 0.759481C0 1.17893 0.340031 1.51896 0.759481 1.51896Z" transform="matrix(0.9824504 -0.18652403 0.18652403 0.9824504 0.56817627 3.9782562)" id="Oval" fill="#03041F" fill-rule="evenodd" stroke="none" />
            <path d="M0 0.664516C0.379724 1.04424 1.80369 0.854378 2.08848 0.0949309" transform="translate(0.16589355 9.726387)" id="Path" fill="none" fill-rule="evenodd" stroke="#1D0A05" stroke-width="0.6035705" stroke-linecap="round" stroke-linejoin="round" />
          </g>
          <path d="M10.9171 14.9373C10.9171 14.9373 14.0498 -1.29588 0 5.25435C0 5.25435 5.41106 -3.66915 17.7521 1.74191C20.3152 2.88108 22.9733 6.01379 23.5429 8.76679C24.3023 13.2285 21.8341 17.1207 17.847 24.1456L13.1005 18.6396C12.9106 17.6903 10.9171 14.9373 10.9171 14.9373Z" transform="translate(3.7295532 9.649799)" id="Path" fill="#EAEAEA" fill-rule="evenodd" stroke="none" />
          <path d="M14.4791 8.10926L11.6312 14.8494C-6.31074 9.24843 1.85331 0.799584 1.85331 0.799584C1.85331 0.799584 16.3777 -3.56724 14.4791 8.10926Z" transform="translate(4.724182 11.731293)" id="Path" fill="#EAEAEA" fill-rule="evenodd" stroke="none" />
          <path d="M0 1.38683L3.58221 4.65161L6.05041 0L0 1.38683Z" transform="translate(9.735352 22.403687)" id="Path" fill="#E3E0E0" fill-rule="evenodd" stroke="none" />
          <path d="M7.09825 2.12592C7.09825 2.12592 0.927743 3.17016 0.0733651 7.44205C0.0733651 7.44205 -0.970875 2.79044 4.81991 0.701962C10.5158 -1.48145 7.09825 2.12592 7.09825 2.12592Z" transform="translate(2.0423584 11.259331)" id="Path" fill="#E3E0E0" fill-rule="evenodd" stroke="none" />
          <g id="Group" transform="translate(11.988525 21.834099)">
            <path d="M3.51244 7.02488C5.45231 7.02488 7.02488 5.45231 7.02488 3.51244C7.02488 1.57257 5.45231 0 3.51244 0C1.57257 0 0 1.57257 0 3.51244C0 5.45231 1.57257 7.02488 3.51244 7.02488Z" transform="translate(0.85437787 0.56958526)" id="Oval" fill="#ECACA1" fill-rule="evenodd" stroke="none" />
            <path d="M0.00337532 2.38332C0.00337532 2.38332 -0.186486 -0.179812 2.28172 0.0100501" transform="translate(3.2242744 3.0277379)" id="Path" fill="none" fill-rule="evenodd" stroke="#1D0A05" stroke-width="0.6035705" stroke-linecap="round" stroke-linejoin="round" />
          </g>
        </g>
        <g id="Group" transform="translate(0 35.12442)">
          <path d="M5.98625 0C5.81461 0.136959 20.3152 8.90202 22.4986 36.1472C22.7834 39.3748 20.5051 42.1278 17.2774 42.6025C14.2396 43.0771 10.3475 41.1785 9.49309 38.2357L0 10.2311L5.98625 0Z" transform="translate(68.82488 11.508119)" id="Path" fill="url(#gradient_1)" fill-rule="evenodd" stroke="none" />
          <g id="Group" transform="translate(0 9.493088)">
            <path d="M10.9194 4.37029L0.571939 24.4956C-0.852024 27.7233 0.477008 31.4256 3.5148 33.1343L3.5148 33.1343C6.74245 34.8431 10.8245 33.609 12.5332 30.3814L24.1148 10.9205C25.8236 7.7878 25.0641 3.99057 22.3111 1.71223L22.3111 1.71223C18.7037 -1.42049 12.913 -0.0914586 10.9194 4.37029Z" transform="translate(35.501793 0.4711821)" id="Path" fill="url(#gradient_1)" fill-rule="evenodd" stroke="none" />
            <g id="Group" transform="translate(2.8479264 8.543778)">
              <g id="Group">
                <path d="M6.36037 12.7207C9.8731 12.7207 12.7207 9.8731 12.7207 6.36037C12.7207 2.84763 9.8731 0 6.36037 0C2.84763 0 0 2.84763 0 6.36037C0 9.8731 2.84763 12.7207 6.36037 12.7207Z" transform="translate(0.66451615 1.6138248)" id="Oval" fill="#ECACA1" fill-rule="evenodd" stroke="none" />
                <path d="M0 1.61637C0 1.61637 0.284793 -0.946763 3.32258 0.382269C5.88571 1.52144 9.49309 5.50854 6.55023 11.1095L0 1.61637Z" transform="translate(5.7907834 0.18731603)" id="Path" fill="#ECACA1" fill-rule="evenodd" stroke="none" />
                <path d="M17.1825 3.60737L3.13272 0L0 8.35392L15.094 12.6258L17.1825 3.60737Z" transform="translate(8.733641 5.6958528)" id="Path" fill="#EDAC9F" fill-rule="evenodd" stroke="none" />
              </g>
              <path d="M27.8147 8.63871L2.4682 0L0 11.8664L23.4479 20.1253C27.0553 21.6442 31.2323 19.4608 31.8968 15.5687L31.8968 15.5687C32.5613 12.5309 30.7576 9.58802 27.8147 8.63871Z" transform="translate(13.100461 5.316129)" id="Path" fill="url(#gradient_1)" fill-rule="evenodd" stroke="none" />
            </g>
            <g id="Group" transform="translate(0 0.94930875)">
              <path d="M11.78 15.7585L7.60303 19.176C7.41317 19.3659 7.03344 19.271 6.93851 18.8912L0.103491 4.46175C-0.086371 4.08203 0.00855991 3.7023 0.198422 3.51244L4.37538 0.0949309C4.56524 -0.0949309 4.94497 0 5.0399 0.379723L11.8749 14.8092C12.0648 15.094 11.9698 15.4737 11.78 15.7585Z" transform="translate(0.18130183 0.85437787)" id="Path" fill="#444548" fill-rule="evenodd" stroke="none" />
              <path d="M12.0601 15.8535L7.59832 19.5558C7.31352 19.7456 7.02873 19.6507 6.83887 19.271L0.0987773 4.74654C-0.0910844 4.36682 0.00384644 3.9871 0.288639 3.79724L4.75039 0.0949309C5.03518 -0.0949309 5.31998 0 5.50984 0.379724L12.2499 14.9041C12.3449 15.1889 12.3449 15.6636 12.0601 15.8535Z" transform="translate(0.6606697 0.09493087)" id="Path" fill="#000000" fill-rule="evenodd" stroke="none" />
            </g>
            <path d="M5.21031 4.98828L5.30524 2.8998L1.88773 0.241732C1.41307 -0.137992 0.653625 -0.0430609 0.273901 0.336663L0.273901 0.336663C-0.0108913 0.621455 -0.200753 1.09611 0.368832 1.76063L4.92551 5.27307" transform="translate(8.45974 7.447669)" id="Path" fill="#ECACA1" fill-rule="evenodd" stroke="none" />
          </g>
          <g id="Group" transform="translate(43.6682 8.543778)">
            <path d="M6.27196 3.51671C4.18348 6.45957 0.765965 12.5351 0.671034 20.6992C0.671034 20.8891 0.671034 21.1739 0.671034 21.3637C0.860896 23.1674 0.29131 36.7425 0.00651784 43.7674C-0.088413 45.5711 0.860896 49.0835 2.37979 49.9379C5.60744 51.7416 19.5623 53.3554 31.1438 50.1278C32.7577 49.6531 33.707 47.9444 33.2323 46.2356C31.9982 41.9637 27.6314 31.8061 30.6692 23.737C37.9789 4.46602 30.954 0.95358 25.8277 0.00427145C25.1632 -0.0906594 22.695 1.42823 22.0305 1.42823L9.87933 1.6181C8.45537 1.52317 7.12633 2.28261 6.27196 3.51671Z" transform="translate(0.1833439 0.6602447)" id="Path" fill="url(#gradient_1)" fill-rule="evenodd" stroke="none" />
            <path d="M3.79724 0C3.79724 0 -0.284793 3.79724 0.284793 14.5244C0.284793 14.5244 0 19.6507 0 25.3465" transform="translate(0.66451615 9.588018)" id="Path" fill="none" fill-rule="evenodd" stroke="#DD3D5A" stroke-width="0.5" />
          </g>
          <g id="Group" transform="translate(48.414745 0)">
            <g id="Group" transform="translate(7.59447 4.746544)">
              <path d="M7.02488 0C7.02488 0 11.6765 15.094 27.2452 16.8977C41.8645 18.6065 40.3456 14.3346 52.4968 15.6636C52.4968 15.6636 50.5982 19.7456 43.5733 26.5806C39.6811 30.2829 39.871 33.0359 39.871 33.0359C39.871 33.0359 16.9926 33.8903 7.97419 22.1189C1.51889 13.765 0 3.03779 0 3.03779L7.02488 0Z" transform="translate(0.09493087 0.47465438)" id="Path" fill="#7A39FA" fill-rule="evenodd" stroke="none" />
              <g id="Group" transform="translate(37.02304 17.087557)">
                <path d="M7.6894 2.08848C7.87926 2.08848 8.16405 1.89862 8.16405 1.70876C8.16405 1.42396 8.06912 1.2341 7.78433 1.13917L0.569585 0C0.284793 0 0.0949309 0.0949309 0 0.379724C0 0.664516 0.0949309 0.854378 0.379723 0.949309L7.6894 2.08848C7.59447 2.08848 7.6894 2.08848 7.6894 2.08848Z" transform="translate(10.062673 0.759447)" id="Path" fill="#F44B69" fill-rule="evenodd" stroke="none" />
                <path d="M7.6894 2.11317C7.87926 2.11317 8.16405 1.92331 8.16405 1.73345C8.16405 1.44866 8.06912 1.2588 7.78433 1.16386L0.569585 0.0246943C0.284793 -0.0702365 0.0949309 0.119625 0 0.404418C0 0.68921 0.0949309 0.879072 0.379723 0.974003L7.6894 2.11317C7.6894 2.11317 7.6894 2.11317 7.6894 2.11317Z" transform="translate(7.4046082 4.152264)" id="Path" fill="#F44B69" fill-rule="evenodd" stroke="none" />
                <path d="M7.6894 2.08848C7.87926 2.08848 8.16405 1.89862 8.16405 1.70876C8.16405 1.42396 8.06912 1.2341 7.78433 1.13917L0.569585 0C0.284793 0 0.0949309 0.0949309 0 0.379724C0 0.664516 0.0949309 0.854378 0.379723 0.949309L7.6894 2.08848C7.59447 2.08848 7.59447 2.08848 7.6894 2.08848Z" transform="translate(3.9870968 7.8792624)" id="Path" fill="#F44B69" fill-rule="evenodd" stroke="none" />
                <path d="M7.6894 2.11317C7.87926 2.11317 8.16405 1.92331 8.16405 1.73345C8.16405 1.44866 8.06912 1.2588 7.78433 1.16386L0.569585 0.0246943C0.284793 -0.0702365 0.0949309 0.119625 0 0.404418C0 0.68921 0.0949309 0.879072 0.379723 0.974003L7.6894 2.11317C7.6894 2.11317 7.6894 2.11317 7.6894 2.11317Z" transform="translate(0.759447 12.221389)" id="Path" fill="#F44B69" fill-rule="evenodd" stroke="none" />
              </g>
            </g>
            <path d="M1.2341 2.73187C4.17696 3.30145 11.2968 4.25076 16.423 0.263667C16.9926 -0.210988 17.7521 -0.0211258 18.0369 0.64339L20.8848 7.76321C21.0747 8.14293 20.9797 8.52265 20.6949 8.90238C18.8912 10.9909 11.4866 18.4904 0.664516 10.1365C0.379723 9.94662 0.284793 9.66182 0.284793 9.37703L0 3.87104C0 3.20652 0.569585 2.63694 1.2341 2.73187Z" transform="translate(0.56958526 0.68564194)" id="Path" fill="#6822F2" fill-rule="evenodd" stroke="none" />
          </g>
        </g>
      </g>
      <g id="Group" transform="translate(49.364044 71.19816)">
        <g id="Group">
          <g id="Group">
            <path d="M5.69585 11.3917C8.84159 11.3917 11.3917 8.84159 11.3917 5.69585C11.3917 2.55012 8.84159 0 5.69585 0C2.55012 0 0 2.55012 0 5.69585C0 8.84159 2.55012 11.3917 5.69585 11.3917Z" transform="translate(0.47465438 0.85437787)" id="Oval" fill="#ECACA1" fill-rule="evenodd" stroke="none" />
            <path d="M0.719003 4.8223C0.719003 4.8223 -1.17961 3.11354 1.19366 1.40479C3.56693 -0.303967 7.64896 -1.25328 11.0665 3.39834L0.719003 4.8223Z" transform="translate(0.040443923 0.20903659)" id="Path" fill="#ECACA1" fill-rule="evenodd" stroke="none" />
          </g>
          <path d="M1.04424 0L10.1576 1.89862L8.16405 9.20829L0 6.92995L1.04424 0Z" transform="translate(8.258986 3.5124424)" id="Path" fill="#EDAC9F" fill-rule="evenodd" stroke="none" />
        </g>
        <path d="M17.0876 2.56313C16.518 2.37327 1.51889 0 1.51889 0L0 10.5373L23.353 14.5244L17.0876 2.56313Z" transform="translate(12.151152 3.6073732)" id="Path" fill="url(#gradient_1)" fill-rule="evenodd" stroke="none" />
        <path d="M18.7014 2.94286L0 0" transform="translate(13.670046 3.6073732)" id="Path" fill="none" fill-rule="evenodd" stroke="#DD3D5A" stroke-width="0.5" />
        <path d="M14.5244 4.84147L0 2.56313L0.284793 0" transform="translate(12.246083 11.581567)" id="Path" fill="none" fill-rule="evenodd" stroke="#DD3D5A" stroke-width="0.5" />
      </g>
    </g>
    <g id="Group" transform="translate(0 80.69125)">
      <path d="M25 14C38.8071 14 50 10.866 50 7C50 3.13401 38.8071 0 25 0C11.1929 0 0 3.13401 0 7C0 10.866 11.1929 14 25 14Z" transform="translate(6 111.308754)" id="Oval-Copy-2" fill="#AB4600" fill-opacity="0.09377325" fill-rule="evenodd" stroke="none" filter="url(#filter_1)" />
      <g id="dog">
        <path d="M0 73.7613C0 73.7613 42.1493 54.6802 62.7493 0" transform="translate(22.973272 0)" id="Path" fill="none" fill-rule="evenodd" stroke="#28233C" stroke-width="0.80757695" />
        <g id="Group" transform="translate(0 64.55299)">
          <path d="M2.7761 5.03134C4.20006 5.69585 5.90881 6.36037 7.52264 6.83502C9.13646 7.30968 10.8452 7.59447 12.459 7.40461C14.0729 7.30968 15.4968 6.64516 16.2563 5.31613C17.1107 3.9871 17.3005 2.18341 17.2056 0.474654L17.2056 0.474654C17.2056 0.189862 17.3955 0 17.6802 0C17.965 0 18.1549 0.189862 18.1549 0.379724C18.3448 1.32903 18.4397 2.27834 18.4397 3.22765C18.4397 4.17696 18.2498 5.2212 17.8701 6.17051C17.4904 7.11982 16.7309 8.06913 15.8766 8.63871C15.0222 9.30323 13.9779 9.68295 12.9337 9.87281C10.9402 10.3475 8.9466 10.2525 7.04799 9.96774C5.14937 9.68295 3.25075 9.30323 1.35213 8.63871C0.307893 8.25899 -0.261692 7.21475 0.118031 6.17051C0.497755 5.12627 1.54199 4.55668 2.58623 4.93641C2.4913 4.93641 2.58623 5.03134 2.7761 5.03134L2.7761 5.03134Z" transform="translate(46.77782 33.035946)" id="Path" fill="#FCFAFA" fill-rule="evenodd" stroke="none" />
          <path d="M7.2079 1.08965C7.2079 1.08965 3.98026 -1.75827 0.657675 1.75417C-2.66491 5.26661 7.68256 13.7155 7.68256 13.7155C7.68256 13.7155 1.70191 12.956 0.562744 16.8482L14.4227 16.8482C14.9922 16.8482 15.5618 16.3735 15.5618 15.709L15.5618 15.709C15.5618 14.6648 15.1821 13.7155 14.6125 12.956L11.5747 9.15878L7.2079 1.08965Z" transform="translate(31.42896 37.737076)" id="Path" fill="#DCDCDC" fill-rule="evenodd" stroke="none" />
          <path d="M9.39816 0L4.65161 20.6949C4.65161 20.6949 0.759447 19.7456 0 23.6378L6.55023 23.6378L17.1825 3.41751L9.39816 0Z" transform="translate(9.872811 30.947466)" id="Path" fill="#DCDCDC" fill-rule="evenodd" stroke="none" />
          <path d="M9.30323 0L40.6304 34.9346C42.1493 36.6433 43.0037 38.9217 42.9088 41.2949C42.8138 44.1429 41.9594 47.4654 38.7318 47.8452C33.0359 48.6046 26.9604 47.0857 15.9484 36.3585C15.9484 36.3585 8.06912 34.0802 6.74009 18.8912L0 9.30323L9.30323 0Z" transform="translate(10.252535 3.6073732)" id="Path" fill="url(#gradient_2)" fill-rule="evenodd" stroke="none" />
          <path d="M1.84462 4.57093C2.94919 4.57093 3.94622 3.24556 3.94622 1.86485C3.94622 0.484139 3.37387 0 2.2693 0C1.16473 0 -0.995376 1.10173 0.523518 2.28547C2.04241 3.4692 0.74005 4.57093 1.84462 4.57093Z" transform="translate(12 11.75576)" id="Oval-Copy-8" fill="#000000" fill-rule="evenodd" stroke="none" />
          <path d="M1.84462 4.57093C2.94919 4.57093 3.94622 3.24556 3.94622 1.86485C3.94622 0.484139 3.37387 0 2.2693 0C1.16473 0 -0.995376 1.10173 0.523518 2.28547C2.04241 3.4692 0.74005 4.57093 1.84462 4.57093Z" transform="translate(48 39.75576)" id="Oval-Copy-10" fill="#000000" fill-rule="evenodd" stroke="none" />
          <path d="M1.84462 4.57093C2.94919 4.57093 3.94622 3.24556 3.94622 1.86485C3.94622 0.484139 3.37387 0 2.2693 0C1.16473 0 -0.995376 1.10173 0.523518 2.28547C2.04241 3.4692 0.74005 4.57093 1.84462 4.57093Z" transform="translate(34 40.75576)" id="Oval-Copy-11" fill="#000000" fill-rule="evenodd" stroke="none" />
          <path d="M7.2079 1.08965C7.2079 1.08965 3.98026 -1.75827 0.657675 1.75417C-2.66491 5.26661 7.68256 13.7155 7.68256 13.7155C7.68256 13.7155 1.70191 12.956 0.562744 16.8482L14.4227 16.8482C14.9922 16.8482 15.5618 16.3735 15.5618 15.709L15.5618 15.709C15.5618 14.6648 15.1821 13.7155 14.6125 12.956L11.5747 9.15878L7.2079 1.08965Z" transform="translate(36.365368 37.737076)" id="Path" fill="#F2F2F2" fill-rule="evenodd" stroke="none" />
          <path d="M18.0497 2.94286C18.0497 2.94286 16.246 0 13.2082 0C11.3096 0 9.31601 0.474654 6.94274 2.56313C4.6644 4.65161 0.107718 3.32258 0.107718 3.32258C0.107718 3.32258 -1.6259 10.0046 8.8165 12.2829C8.8165 12.2829 11.671 10.5711 12.7888 9.44037C14.7487 7.45773 18.0497 2.94286 18.0497 2.94286Z" transform="translate(1.5061073 0.66451615)" id="Path" fill="#FFFFFF" fill-rule="evenodd" stroke="none" />
          <path d="M3.26107 0.394259C3.26107 0.394259 -2.05506 6.09011 0.887793 8.65324C3.83065 11.2164 4.96982 6.09011 7.81775 4.66615C7.81775 4.66615 9.33664 2.86246 7.0583 1.05878C4.5901 -0.839842 3.26107 0.394259 3.26107 0.394259Z" transform="translate(13.256907 0.74491125)" id="Path" fill="#000000" fill-rule="evenodd" stroke="none" />
          <path d="M1.42396 2.84793C2.2104 2.84793 2.84793 2.2104 2.84793 1.42396C2.84793 0.63753 2.2104 0 1.42396 0C0.63753 0 0 0.63753 0 1.42396C0 2.2104 0.63753 2.84793 1.42396 2.84793Z" transform="translate(0.18986174 2.6580646)" id="Oval" fill="#060607" fill-rule="evenodd" stroke="none" />
          <path d="M1.61382 9.77788C1.61382 9.77788 0 7.11981 0 7.11981L0 7.11981L0 7.11981L0 7.11981C0 7.11981 0 7.11981 0 7.11981C0.474654 7.11981 7.97419 6.64516 11.7714 0L13.5751 2.18341C9.30323 9.77788 2.27834 9.77788 1.61382 9.77788Z" transform="translate(11.676497 7.9741936)" id="Path" fill="#F44B69" fill-rule="evenodd" stroke="none" />
          <path d="M0.569585 1.13917C0.884158 1.13917 1.13917 0.884158 1.13917 0.569585C1.13917 0.255012 0.884158 0 0.569585 0C0.255012 0 0 0.255012 0 0.569585C0 0.884158 0.255012 1.13917 0.569585 1.13917Z" transform="translate(9.018434 4.0820274)" id="Oval" fill="#28233C" fill-rule="evenodd" stroke="none" />
          <path d="M1.80369 1.32903L4.08203 17.2774C4.08203 17.2774 0.474654 16.8977 0 20.2203L7.49954 20.2203L9.96774 0L1.80369 1.32903Z" transform="translate(20.41014 34.36498)" id="Path" fill="#F9F9F9" fill-rule="evenodd" stroke="none" />
          <path d="M1.09154 0C-1.66146 5.50599 1.66112 10.2525 1.66112 10.2525L2.32564 18.8912" transform="translate(20.552704 22.973272)" id="Path" fill="none" fill-rule="evenodd" stroke="#DCDCDC" stroke-width="0.66252255" stroke-linecap="round" stroke-linejoin="round" />
          <path d="M1.69111 0C1.69111 0 -1.91626 3.03779 1.40632 8.44885C3.4948 11.7714 7.10217 13.4802 7.10217 13.4802" transform="translate(36.945755 38.06728)" id="Path" fill="none" fill-rule="evenodd" stroke="#DCDCDC" stroke-width="0.66252255" stroke-linecap="round" stroke-linejoin="round" />
          <path d="M0 10.3475L0.949309 0" transform="translate(29.333641 32.46636)" id="Path" fill="none" fill-rule="evenodd" stroke="#DCDCDC" stroke-width="0.66252255" stroke-linecap="round" stroke-linejoin="round" />
        </g>
      </g>
    </g>
  </g>
</svg>

