<?xml version="1.0" encoding="utf-8"?>
<svg width="413px" height="129px" viewbox="0 0 413 129" version="1.1" xmlns:xlink="http://www.w3.org/1999/xlink" xmlns="http://www.w3.org/2000/svg">
  <defs>
    <linearGradient x1="0.5" y1="0" x2="0.5" y2="1" id="gradient_1">
      <stop offset="0" stop-color="#33CABA" />
      <stop offset="1" stop-color="#2BAA5D" />
    </linearGradient>
    <linearGradient x1="0.5" y1="0" x2="0.5" y2="1" id="gradient_2">
      <stop offset="0" stop-color="#FFC982" />
      <stop offset="1" stop-color="#FF8532" />
    </linearGradient>
  </defs>
  <g id="Group" transform="translate(0.35357666 0.35356903)">
    <g id="Group" transform="translate(41 9)">
      <path d="M10.103 10.8C10.503 10.9 11.003 10.9 11.403 10.8C12.603 10.5 14.703 9.7 14.203 6.8C13.503 2.9 3.70298 2.6 0.00297719 0C-0.0970228 5.68434e-14 2.30298 8.9 10.103 10.8Z" transform="translate(0.4970228 0.6)" id="Path" fill="url(#gradient_1)" fill-rule="evenodd" stroke="none" />
      <path d="M9.6 5.3C9.6 5.3 3.9 4.5 0 0" transform="translate(8.9 7.1)" id="Path" fill="none" fill-rule="evenodd" stroke="#3F312D" stroke-width="0.5071" />
    </g>
    <g id="Group" transform="translate(127 106)">
      <path d="M10.103 10.8C10.503 10.9 11.003 10.9 11.403 10.8C12.603 10.5 14.703 9.7 14.203 6.8C13.503 2.9 3.70298 2.6 0.00297719 0C-0.0970228 0 2.30298 8.9 10.103 10.8Z" transform="translate(0.3970228 0.2)" id="Path" fill="url(#gradient_1)" fill-rule="evenodd" stroke="none" />
      <path d="M9.6 5.3C9.6 5.3 3.9 4.5 0 0" transform="translate(8.8 6.7)" id="Path" fill="none" fill-rule="evenodd" stroke="#3F312D" stroke-width="0.5071" />
    </g>
    <g id="Group" transform="translate(396 0)">
      <path d="M0.3 7.8C0.1 8.2 0 8.6 0 9.1C0 10.3 0.5 12.5 3.3 12.6C7.2 12.7 9.4 3.1 12.8 0C12.9 0 3.7 0.6 0.3 7.8Z" transform="translate(2.6 0.5)" id="Path" fill="url(#gradient_1)" fill-rule="evenodd" stroke="none" />
      <path d="M0 8.3C0 8.3 1.9 2.9 7.1 0" transform="translate(0.4 7.6)" id="Path" fill="none" fill-rule="evenodd" stroke="#3F312D" stroke-width="0.5071" />
    </g>
    <g id="Group" transform="translate(0 112)">
      <path d="M0.3 7.80917C0.1 8.20917 0 8.60917 0 9.10917C0 10.3092 0.5 12.5092 3.3 12.6092C7.2 12.7092 9.4 3.10917 12.8 0.0091663C12.8 -0.0908337 3.7 0.509166 0.3 7.80917Z" transform="translate(3 0.1908337)" id="Path" fill="url(#gradient_1)" fill-rule="evenodd" stroke="none" />
      <path d="M0 8.3C0 8.3 1.9 2.9 7.1 0" transform="translate(0.8 7.3)" id="Path" fill="none" fill-rule="evenodd" stroke="#3F312D" stroke-width="0.5071" />
    </g>
    <g id="Group" transform="translate(156 26)">
      <g id="Group-16" transform="translate(0.8 0.2)">
        <path d="M14.7 10.3L15.2 3L10.7 7.1L5.3 0L6.1 8.9L0 8.9L5.3 14L2.8 17.2C8.9 18 10.9 13.9 10.9 13.9C10.9 13.9 14.9 15.7 18.8 11L14.7 10.3Z" transform="matrix(1 0 0 1 -3.3928416E-13 2.842171E-14)" id="Path" fill="url(#gradient_2)" fill-rule="evenodd" stroke="none" />
        <path d="M7.8 7.7C7.8 7.7 2.8 8.4 0 0" transform="translate(9.3 10.9)" id="Path" fill="none" fill-rule="evenodd" stroke="#3F312D" stroke-width="0.5071" />
      </g>
      <g id="Group-16-Copy" transform="translate(190.8 30.2)">
        <path d="M14.7 10.3L15.2 3L10.7 7.1L5.3 0L6.1 8.9L0 8.9L5.3 14L2.8 17.2C8.9 18 10.9 13.9 10.9 13.9C10.9 13.9 14.9 15.7 18.8 11L14.7 10.3Z" transform="matrix(1 0 0 1 -3.3928416E-13 2.842171E-14)" id="Path" fill="url(#gradient_2)" fill-rule="evenodd" stroke="none" />
        <path d="M7.8 7.7C7.8 7.7 2.8 8.4 0 0" transform="translate(9.3 10.9)" id="Path" fill="none" fill-rule="evenodd" stroke="#3F312D" stroke-width="0.5071" />
      </g>
    </g>
    <g id="Group" transform="translate(80 80)">
      <path d="M14.7 10.3L15.2 3L10.7 7.1L5.3 0L6.1 8.9L0 8.9L5.3 14L2.8 17.2C8.9 18 10.9 13.9 10.9 13.9C10.9 13.9 14.9 15.7 18.8 11L14.7 10.3Z" transform="translate(0.3 0.9)" id="Path" fill="url(#gradient_2)" fill-rule="evenodd" stroke="none" />
      <path d="M7.8 7.7C7.8 7.7 2.8 8.4 0 0" transform="translate(9.6 11.8)" id="Path" fill="none" fill-rule="evenodd" stroke="#3F312D" stroke-width="0.5071" />
    </g>
  </g>
</svg> 