<?xml version="1.0" encoding="utf-8"?>
<svg width="20px" height="27px" viewbox="0 0 20 27" version="1.1" xmlns:xlink="http://www.w3.org/1999/xlink" xmlns="http://www.w3.org/2000/svg">
  <path d="M9 0C4.03737 0 0 4.06163 0 9.05402C0 15.2497 8.05412 24.3454 8.39703 24.7296C8.71912 25.0905 9.28146 25.0898 9.60297 24.7296C9.94588 24.3454 18 15.2497 18 9.05402C17.9999 4.06163 13.9626 0 9 0ZM9 13.6093C6.50318 13.6093 4.47192 11.5658 4.47192 9.05402C4.47192 6.5422 6.50323 4.49874 9 4.49874C11.4968 4.49874 13.528 6.54224 13.528 9.05406C13.528 11.5659 11.4968 13.6093 9 13.6093Z" transform="translate(0.8500061 0.8500061)" id="Shape" fill="none" fill-rule="evenodd" stroke="#8290B0" stroke-width="1.7" />
</svg>