<?xml version="1.0" encoding="utf-8"?>
<svg width="27px" height="26px" viewbox="0 0 27 26" version="1.1" xmlns:xlink="http://www.w3.org/1999/xlink" xmlns="http://www.w3.org/2000/svg">
  <g id="logout" transform="translate(0.1000061 0.099975586)">
    <path d="M17.7908 6.47577C17.7959 6.47066 17.7959 6.47066 17.801 6.46556C17.8163 6.44515 17.8316 6.42985 17.8418 6.40944C17.8469 6.40434 17.8469 6.39923 17.852 6.39413C17.8622 6.37372 17.8776 6.35332 17.8878 6.33291C17.8878 6.32781 17.8929 6.3227 17.8929 6.3227C17.9031 6.3023 17.9133 6.28189 17.9235 6.25638C17.9235 6.25128 17.9235 6.25128 17.9286 6.24617C17.9388 6.22577 17.9439 6.20026 17.9541 6.17474C17.9541 6.16964 17.9541 6.16454 17.9592 6.16454C17.9643 6.13903 17.9745 6.11862 17.9745 6.09311C17.9745 6.08291 17.9745 6.07781 17.9796 6.0676C17.9847 6.04719 17.9847 6.02679 17.9898 6.00638C17.9949 5.97577 17.9949 5.95026 17.9949 5.91964C17.9949 5.88903 17.9949 5.86352 17.9898 5.83291C17.9898 5.8125 17.9847 5.79209 17.9796 5.77168C17.9796 5.76148 17.9796 5.75638 17.9745 5.74617C17.9694 5.72066 17.9643 5.70026 17.9592 5.67475C17.9592 5.66964 17.9592 5.66454 17.9541 5.66454C17.949 5.63903 17.9388 5.61862 17.9286 5.59311C17.9286 5.58801 17.9286 5.58801 17.9235 5.58291C17.9133 5.5625 17.9031 5.53699 17.8929 5.51658C17.8929 5.51148 17.8878 5.50638 17.8878 5.50638C17.8776 5.48597 17.8673 5.46556 17.852 5.44515C17.8469 5.44005 17.8469 5.43495 17.8418 5.42985C17.8265 5.40944 17.8163 5.38903 17.801 5.37372C17.7959 5.36862 17.7959 5.36862 17.7908 5.36352C17.7704 5.34311 17.7551 5.3176 17.7296 5.29719L12.6837 0.256378C12.3418 -0.0854592 11.7857 -0.0854592 11.4439 0.256378C11.102 0.598214 11.102 1.15434 11.4439 1.49617L14.9949 5.04719L0.877551 5.04719C0.392857 5.04719 0 5.44005 0 5.91964C0 6.40434 0.392857 6.79719 0.877551 6.79719L15 6.79719L11.4745 10.3227C11.1327 10.6645 11.1327 11.2207 11.4745 11.5625C11.6429 11.7309 11.8673 11.8176 12.0918 11.8176C12.3163 11.8176 12.5408 11.7309 12.7092 11.5625L17.7245 6.54719C17.75 6.51658 17.7704 6.49617 17.7908 6.47577Z" transform="translate(7.234694 6.575255)" id="Path" fill="#F58575" fill-rule="evenodd" stroke="#F58575" stroke-width="0.2" />
    <path d="M4.75 1.75L11.2806 1.75C11.7653 1.75 12.1582 1.35714 12.1582 0.877551C12.1582 0.392857 11.7653 0 11.2806 0L4.75 0C2.13265 1.81261e-16 0 2.13265 0 4.75L0 20.2449C0 22.8622 2.13265 24.9949 4.75 24.9949L11.1735 24.9949C11.6582 24.9949 12.051 24.602 12.051 24.1224C12.051 23.6378 11.6582 23.2449 11.1735 23.2449L4.75 23.2449C3.09694 23.2449 1.75 21.898 1.75 20.2449L1.75 4.75C1.7551 3.09184 3.09694 1.75 4.75 1.75Z" transform="translate(0.030612245 0)" id="Path" fill="#F58575" fill-rule="evenodd" stroke="#F58575" stroke-width="0.2" />
  </g>
</svg>