<?xml version="1.0" encoding="utf-8"?>
<svg width="64px" height="66px" viewbox="0 0 64 66" version="1.1" xmlns:xlink="http://www.w3.org/1999/xlink" xmlns="http://www.w3.org/2000/svg">
  <defs>
    <linearGradient x1="0.88106656" y1="0.92543" x2="0.09539714" y2="0.073703334" id="gradient_1">
      <stop offset="0" stop-color="#008EFF" />
      <stop offset="1" stop-color="#69D9FF" />
    </linearGradient>
    <filter filterUnits="userSpaceOnUse" color-interpolation-filters="sRGB" id="filter_1">
      <feFlood flood-opacity="0" result="BackgroundImageFix" />
      <feColorMatrix in="SourceAlpha" type="matrix" values="0 0 0 0 0 0 0 0 0 0 0 0 0 0 0 0 0 0 127 0" />
      <feOffset dx="6" dy="6" />
      <feGaussianBlur stdDeviation="5" />
      <feColorMatrix type="matrix" values="0 0 0 0 0.08627451 0 0 0 0 0.08627451 0 0 0 0 0.09019608 0 0 0 0.79607844 0" />
      <feBlend mode="normal" in2="BackgroundImageFix" result="effect0_dropShadow" />
      <feColorMatrix in="SourceAlpha" type="matrix" values="0 0 0 0 0 0 0 0 0 0 0 0 0 0 0 0 0 0 127 0" />
      <feOffset dx="-6" dy="-6" />
      <feGaussianBlur stdDeviation="5" />
      <feColorMatrix type="matrix" values="0 0 0 0 0.21960784 0 0 0 0 0.24313726 0 0 0 0 0.27450982 0 0 0 0.7490196 0" />
      <feBlend mode="normal" in2="effect0_dropShadow" result="effect1_dropShadow" />
      <feBlend mode="normal" in="SourceGraphic" in2="effect1_dropShadow" result="shape" />
    </filter>
    <path d="M14.8019 20.5128C14.6922 22.4566 13.0319 24 11 24C8.96805 24 7.30785 22.4566 7.19808 20.5128L2.54265 20.5128C1.13847 20.5128 0 19.4113 0 18.0513C0 16.6931 1.13751 15.5897 2.53934 15.5897C2.5377 15.5897 2.53846 10.6664 2.53846 10.6664C2.53846 7.1986 4.77478 4.15824 8.03846 2.97796L8.03846 2.86985C8.03846 1.28535 9.36627 0 11 0C12.6355 0 13.9615 1.28458 13.9615 2.86985L13.9615 2.97803C17.2251 4.15846 19.4615 7.19933 19.4615 10.6664L19.4615 15.589C20.8604 15.5897 22 16.6926 22 18.0513C22 19.4099 20.8606 20.5128 19.4574 20.5128L14.8019 20.5128ZM13.1049 20.5128L8.89506 20.5128C9.00119 21.5494 9.9031 22.359 11 22.359C12.0969 22.359 12.9988 21.5494 13.1049 20.5128ZM9.11911 4.35891C6.24622 5.16243 4.23077 7.72195 4.23077 10.6664L4.23077 15.589C4.23077 16.4951 3.47257 17.2308 2.53934 17.2308C2.07224 17.2308 1.69231 17.5993 1.69231 18.0513C1.69231 18.5042 2.07225 18.8718 2.54265 18.8718L19.4574 18.8718C19.9266 18.8718 20.3077 18.5029 20.3077 18.0513C20.3077 17.5997 19.9265 17.2308 19.4607 17.2308C18.5256 17.2308 17.7692 16.4977 17.7692 15.589L17.7692 10.6664C17.7692 7.72267 15.7536 5.16255 12.8809 4.35894L12.2692 4.18785L12.2692 2.86985C12.2692 2.19126 11.7012 1.64103 11 1.64103C10.3003 1.64103 9.73077 2.1923 9.73077 2.86985L9.73077 4.18784L9.11911 4.35891Z" transform="translate(21 21)" id="path_1" />
  </defs>
  <g id="Shape" filter="url(#filter_1)">
    <use stroke="none" fill="url(#gradient_1)" xlink:href="#path_1" fill-rule="evenodd" />
    <use stroke="none" fill="#FFFFFF" xlink:href="#path_1" fill-rule="evenodd" />
  </g>
</svg>