<?xml version="1.0" encoding="utf-8"?>
<svg width="15px" height="15px" viewbox="0 0 15 15" version="1.1" xmlns:xlink="http://www.w3.org/1999/xlink" xmlns="http://www.w3.org/2000/svg">
  <path d="M13.9235 13.5525L9.84453 9.46796C10.8849 8.46328 11.5295 7.07824 11.5295 5.55073C11.5295 2.4899 8.94358 0 5.76474 0C2.5859 0 0 2.4899 0 5.55073C0 8.61156 2.5859 11.1015 5.76474 11.1015C7.16008 11.1015 8.44068 10.6212 9.4388 9.82426L13.5276 13.9189C13.5815 13.973 13.6534 14 13.7256 14C13.7942 14 13.8626 13.9754 13.9158 13.9263C14.0251 13.825 14.0284 13.6577 13.9235 13.5525ZM5.76474 10.5728C2.88868 10.5728 0.549023 8.32002 0.549023 5.55073C0.549023 2.78144 2.88868 0.528641 5.76474 0.528641C8.6408 0.528641 10.9805 2.78144 10.9805 5.55073C10.9805 8.32002 8.64052 10.5728 5.76474 10.5728Z" transform="translate(0.5 0.5)" id="Shape" fill="none" fill-rule="evenodd" stroke="#FFFFFF" stroke-width="1" />
</svg>