<?xml version="1.0" encoding="utf-8"?>
<svg width="24px" height="28px" viewbox="0 0 24 28" version="1.1" xmlns:xlink="http://www.w3.org/1999/xlink" xmlns="http://www.w3.org/2000/svg">
  <g id="noun_Security_1002240" transform="translate(0.19999695 0.2000122)">
    <path d="M10.9635 26.6941C11.1098 26.7449 11.269 26.7449 11.4153 26.6941C22.6507 22.8012 22.4853 13.533 22.3448 6.7582C22.3311 6.01983 22.3173 5.32554 22.3173 4.65055C22.3173 4.27014 22.0089 3.96177 21.6285 3.96177C17.4738 3.96177 14.311 2.76606 11.6688 0.195545C11.4013 -0.0651816 10.9748 -0.0651816 10.7073 0.195545C8.06514 2.7633 4.90229 3.96177 0.747594 3.96177C0.367193 3.96177 0.058818 4.27014 0.058818 4.65055C0.058818 5.32554 0.058818 6.0281 0.031267 6.7582C-0.106488 13.533 -0.271794 22.7984 10.9635 26.6941ZM1.41157 6.79126C1.41157 6.28983 1.43086 5.80769 1.43637 5.33381C5.40372 5.21534 8.52525 4.02789 11.1894 1.63922C13.8536 4.02789 16.9751 5.22085 20.9452 5.33657C20.9452 5.80769 20.959 6.29259 20.97 6.79401C21.0968 13.4421 21.2456 21.7046 11.1894 25.3166C1.1278 21.7019 1.27106 13.4393 1.41157 6.79126Z" transform="translate(0.10648814 0.12955713)" id="Shape" fill="#8290B0" stroke="#8290B0" stroke-width="0.4" />
    <path d="M5.73562 6.65879C5.94728 7.22861 5.6576 7.86222 5.08817 8.07492C3.6835 8.62462 2.12324 8.62462 0.718575 8.07492L0.71582 8.07492C0.147863 7.86221 -0.141485 7.23057 0.0683707 6.66155L0.927962 4.23982C0.536006 3.77808 0.320289 3.19242 0.319085 2.58675C0.316408 1.23674 1.35435 0.112644 2.70029 0.00788762C4.04624 -0.0968693 5.2456 0.853094 5.45184 2.18726C5.56602 2.92299 5.35488 3.67203 4.87327 4.23982L5.73562 6.65879ZM1.76611 2.17549C1.59784 2.65969 1.7546 3.19734 2.15674 3.51522L2.15398 3.51522C2.38389 3.6982 2.4724 4.00689 2.37439 4.2839L1.45419 6.87369C2.39443 7.18415 3.40956 7.18415 4.3498 6.87369L3.42959 4.2839C3.33158 4.00689 3.42009 3.6982 3.65 3.51522C4.05214 3.19734 4.2089 2.65969 4.04064 2.17549C3.87237 1.69129 3.41597 1.36673 2.90337 1.36673C2.39077 1.36673 1.93437 1.69129 1.76611 2.17549Z" transform="translate(8.395303 9.260185)" id="Combined-Shape" fill="#8290B0" fill-rule="evenodd" stroke="#8290B0" stroke-width="0.1" />
  </g>
</svg>