<?xml version="1.0" encoding="utf-8"?>
<svg width="25px" height="25px" viewbox="0 0 25 25" version="1.1" xmlns:xlink="http://www.w3.org/1999/xlink" xmlns="http://www.w3.org/2000/svg">
  <g id="Group-2" transform="translate(0.2880249 0.2879982)">
    <path d="M22.752 9.312L20.544 9.312C20.16 9.312 19.872 9.12 19.776 8.736C19.68 8.448 19.68 8.064 19.968 7.776L21.6 6.144C21.792 5.952 21.984 5.568 21.984 5.28C21.984 4.992 21.888 4.608 21.6 4.416L19.584 2.4C19.104 1.92 18.336 1.92 17.856 2.4L16.224 4.032C15.936 4.32 15.648 4.32 15.264 4.224C14.976 4.128 14.688 3.744 14.688 3.456L14.688 1.248C14.688 0.576 14.112 0 13.44 0L10.56 0C9.888 0 9.312 0.576 9.312 1.248L9.312 3.456C9.312 3.84 9.12 4.128 8.736 4.224C8.448 4.32 8.064 4.32 7.776 4.032L6.144 2.4C5.664 1.92 4.896 1.92 4.416 2.4L2.4 4.416C2.208 4.608 2.016 4.992 2.016 5.28C2.016 5.568 2.112 5.952 2.4 6.144L4.032 7.776C4.32 8.064 4.32 8.352 4.224 8.736C4.128 9.024 3.744 9.312 3.456 9.312L1.248 9.312C0.576 9.312 0 9.888 0 10.56L0 13.44C0 14.112 0.576 14.688 1.248 14.688L3.456 14.688C3.84 14.688 4.128 14.88 4.224 15.264C4.32 15.552 4.32 15.936 4.032 16.224L2.4 17.856C2.208 18.048 2.016 18.432 2.016 18.72C2.016 19.008 2.112 19.392 2.4 19.584L4.416 21.6C4.896 22.08 5.664 22.08 6.144 21.6L7.776 19.968C8.064 19.68 8.352 19.68 8.736 19.776C9.024 19.872 9.312 20.256 9.312 20.544L9.312 22.752C9.312 23.424 9.888 24 10.56 24L13.44 24C14.112 24 14.688 23.424 14.688 22.752L14.688 20.544C14.688 20.16 14.88 19.872 15.264 19.776C15.552 19.68 15.936 19.68 16.224 19.968L17.856 21.6C18.336 22.08 19.104 22.08 19.584 21.6L21.6 19.584C21.792 19.392 21.984 19.008 21.984 18.72C21.984 18.432 21.888 18.048 21.6 17.856L19.968 16.224C19.68 15.936 19.68 15.648 19.776 15.264C19.872 14.976 20.256 14.688 20.544 14.688L22.752 14.688C23.424 14.688 24 14.112 24 13.44L24 10.56C24 9.888 23.424 9.312 22.752 9.312ZM23.136 13.44C23.136 13.632 22.944 13.824 22.752 13.824L20.544 13.824C19.776 13.824 19.2 14.208 18.912 14.88C18.624 15.552 18.816 16.32 19.296 16.8L20.928 18.432C21.024 18.528 21.024 18.816 20.928 18.912L18.912 20.928C18.816 21.024 18.528 21.024 18.432 20.928L16.8 19.296C16.32 18.816 15.552 18.624 14.88 18.912C14.208 19.2 13.824 19.776 13.824 20.544L13.824 22.752C13.824 22.944 13.632 23.136 13.44 23.136L10.56 23.136C10.368 23.136 10.176 22.944 10.176 22.752L10.176 20.544C10.176 19.776 9.792 19.2 9.12 18.912C8.928 18.816 8.64 18.816 8.448 18.816C7.968 18.816 7.584 19.008 7.2 19.296L5.568 20.928C5.472 21.024 5.184 21.024 5.088 20.928L3.072 18.912C2.976 18.816 2.976 18.528 3.072 18.432L4.704 16.8C5.184 16.32 5.376 15.552 5.088 14.88C4.8 14.208 4.224 13.824 3.456 13.824L1.248 13.824C1.056 13.824 0.864 13.632 0.864 13.44L0.864 10.56C0.864 10.368 1.056 10.176 1.248 10.176L3.456 10.176C4.224 10.176 4.8 9.792 5.088 9.12C5.376 8.448 5.184 7.68 4.704 7.2L3.072 5.568C2.976 5.472 2.976 5.184 3.072 5.088L5.088 3.072C5.184 2.976 5.472 2.976 5.568 3.072L7.2 4.704C7.68 5.184 8.448 5.376 9.12 5.088C9.792 4.8 10.176 4.224 10.176 3.456L10.176 1.248C10.176 1.056 10.368 0.864 10.56 0.864L13.44 0.864C13.632 0.864 13.824 1.056 13.824 1.248L13.824 3.456C13.824 4.224 14.208 4.8 14.88 5.088C15.552 5.376 16.32 5.184 16.8 4.704L18.432 3.072C18.528 2.976 18.816 2.976 18.912 3.072L20.928 5.088C21.024 5.184 21.024 5.472 20.928 5.568L19.296 7.2C18.816 7.68 18.624 8.448 18.912 9.12C19.2 9.792 19.776 10.176 20.544 10.176L22.752 10.176C22.944 10.176 23.136 10.368 23.136 10.56L23.136 13.44L23.136 13.44Z" id="Shape_1_" fill="#FFFFFF" stroke="#FFFFFF" stroke-width="0.576" />
    <path d="M4.032 0C1.824 0 0 1.824 0 4.032C0 6.24 1.824 8.064 4.032 8.064C6.24 8.064 8.064 6.24 8.064 4.032C8.064 1.824 6.24 0 4.032 0ZM4.03202 7.104C2.30402 7.104 0.960022 5.664 0.960022 4.032C0.960022 2.4 2.40002 0.959999 4.03202 0.959999C5.66402 0.959999 7.10402 2.4 7.10402 4.032C7.10402 5.664 5.76002 7.104 4.03202 7.104Z" transform="translate(7.9680176 7.9679985)" id="Shape_2_" fill="#FFFFFF" stroke="#FFFFFF" stroke-width="0.576" />
  </g>

  
</svg>