<?xml version="1.0" encoding="utf-8"?>
<svg width="24px" height="26px" viewbox="0 0 24 26" version="1.1" xmlns:xlink="http://www.w3.org/1999/xlink" xmlns="http://www.w3.org/2000/svg">
  <path d="M0.22221 10.2252C-0.104981 10.8917 -0.0689003 11.6825 0.317583 12.3155C0.704066 12.9485 1.38593 13.3336 2.11997 13.3335L10.6969 13.3335L10.6969 23.3334L6.24302 23.3334Q6.16104 23.3334 6.08064 23.3493Q6.00024 23.3653 5.9245 23.3967Q5.84877 23.4281 5.78061 23.4736Q5.71244 23.5192 5.65448 23.5771Q5.59651 23.6351 5.55097 23.7033Q5.50542 23.7714 5.47405 23.8472Q5.44268 23.9229 5.42669 24.0033Q5.4107 24.0837 5.4107 24.1657L5.4107 24.1677Q5.4107 24.2497 5.42669 24.3301Q5.44268 24.4105 5.47405 24.4862Q5.50542 24.5619 5.55097 24.6301Q5.59651 24.6982 5.65448 24.7562Q5.71244 24.8142 5.78061 24.8597Q5.84877 24.9053 5.9245 24.9366Q6.00024 24.968 6.08064 24.984Q6.16104 25 6.24302 25L16.7938 25Q16.8758 25 16.9562 24.984Q17.0366 24.968 17.1123 24.9366Q17.188 24.9053 17.2562 24.8597Q17.3244 24.8142 17.3823 24.7562Q17.4403 24.6982 17.4858 24.6301Q17.5314 24.5619 17.5628 24.4862Q17.5941 24.4105 17.6101 24.3301Q17.6261 24.2497 17.6261 24.1677L17.6261 24.1657Q17.6261 24.0837 17.6101 24.0033Q17.5941 23.9229 17.5628 23.8472Q17.5314 23.7714 17.4858 23.7033Q17.4403 23.6351 17.3823 23.5771Q17.3244 23.5192 17.2562 23.4736Q17.188 23.4281 17.1123 23.3967Q17.0366 23.3653 16.9562 23.3493Q16.8758 23.3334 16.7938 23.3334L12.3399 23.3334L12.3399 13.3335L20.9168 13.3335C21.6459 13.3208 22.3174 12.9288 22.6945 12.2958C23.0716 11.6627 23.1015 10.8775 22.7735 10.2168L18.6658 1.80862C18.122 0.69853 17.0043 -0.00238818 15.7822 0.00030523L7.2546 0.00030523C6.01592 -0.0168461 4.87791 0.69002 4.32992 1.81695L0.22221 10.2252ZM12.3399 13.3335L10.6969 13.3335L10.6969 12.2918L12.3399 12.2918L12.3399 13.3335ZM1.65991 10.9668L5.83334 2.55861C6.1002 2.01033 6.6518 1.66428 7.2546 1.66695L15.7822 1.66695C16.3968 1.65133 16.9643 1.99934 17.2363 2.55861L21.344 10.9668C21.4182 11.1169 21.4103 11.2952 21.3232 11.4379C21.2362 11.5806 21.0823 11.6673 20.9168 11.6668L2.08711 11.6668C1.92164 11.6673 1.76779 11.5806 1.6807 11.4379C1.5936 11.2952 1.58573 11.1169 1.65991 10.9668Z" transform="translate(0.1000061 0.1000061)" id="Combined-Shape" fill="#8290B0" fill-rule="evenodd" stroke="#8290B0" stroke-width="0.2" />
</svg>