<?xml version="1.0" encoding="utf-8"?>
<svg width="10px" height="18px" viewbox="0 0 10 18" version="1.1" xmlns:xlink="http://www.w3.org/1999/xlink" xmlns="http://www.w3.org/2000/svg">
  <path d="M8.47638 10.6362C8.3461 10.4001 8.04182 10.3105 7.79677 10.4359C7.55165 10.5613 7.4586 10.8544 7.58884 11.0904C7.85444 11.5718 7.99486 12.1166 7.99486 12.6661C7.99486 13.5802 7.62084 14.4354 6.94167 15.0742C6.26281 15.7128 5.36513 16.052 4.41519 16.0309C2.53241 15.9881 1.00266 14.4765 1.00517 12.6614C1.00693 11.3808 1.74799 10.2287 2.93902 9.65464C3.10922 9.57266 3.21668 9.40508 3.21668 9.22177L3.21668 1.9542C3.21668 1.41044 3.67603 0.968037 4.24064 0.968037L4.75929 0.968037C5.3239 0.968037 5.78325 1.41044 5.78325 1.9542L5.78325 8.92009C5.78325 9.1874 6.00831 9.40412 6.28584 9.40412C6.56337 9.40412 6.78842 9.18744 6.78842 8.92009L6.78842 8.34036L7.99797 8.34036C8.2755 8.34036 8.50055 8.12368 8.50055 7.85632C8.50055 7.58897 8.2755 7.37229 7.99797 7.37229L6.78842 7.37229L6.78842 6.61881L7.26384 6.61881C7.54137 6.61881 7.76643 6.40213 7.76643 6.13478C7.76643 5.86746 7.54137 5.65074 7.26384 5.65074L6.78842 5.65074L6.78842 4.89726L7.99797 4.89726C8.2755 4.89726 8.50055 4.68058 8.50055 4.41323C8.50055 4.14587 8.2755 3.92919 7.99797 3.92919L6.78842 3.92919L6.78842 3.17575L7.26384 3.17575C7.54137 3.17575 7.76643 2.95906 7.76643 2.69171C7.76643 2.42436 7.54137 2.20768 7.26384 2.20768L6.78842 2.20768L6.78842 1.9542C6.78842 0.876662 5.8782 0 4.75933 0L4.24068 0C3.12184 0 2.21158 0.876662 2.21158 1.9542L2.21158 8.93446C0.841761 9.71191 0.00217604 11.1131 4.0779e-06 12.6602C-0.00327111 14.9973 1.96673 16.9436 4.3914 16.9987C4.42815 16.9996 4.46463 17 4.50128 17C5.68362 17 6.79608 16.5644 7.64397 15.7668C8.51845 14.9443 9 13.8431 9 12.666C9 11.9588 8.81893 11.2569 8.47638 10.6362Z" transform="translate(0.049987793 0.049987793)" id="Path" fill="#F55945" fill-rule="evenodd" stroke="#F55945" stroke-width="0.1" />
</svg>